<svg xmlns="http://www.w3.org/2000/svg" version="1" viewBox="0 0 515 380">
  <path fill="#00599c" d="M320 276c3-4 4-9 4-13V117c0-4-1-9-4-13l-149 86z"/>
  <path fill="#004482" d="M184 359l127-73c3-2 7-6 9-10l-149-86-149 86c2 4 6 8 9 10l127 73c7 4 19 4 26 0z"/>
  <path fill="#659ad2" d="M320 104c-2-4-6-8-9-10L184 21c-7-4-19-4-26 0L31 94c-7 4-13 15-13 23v146c0 4 1 9 4 13l149-86z"/>
  <path fill="#fff" d="M171 292a102 102 0 1 1 88-153l-44 26c-9-16-26-26-44-26a51 51 0 1 0 44 77l44 25c-18 32-52 51-88 51z"/>
  <path fill="#fff" d="M262 207v-11h11v-11h-11v-12h-12v12h-11v11h11v11zm42 0v-11h12v-11h-12v-12h-11v12h-11v11h11v11z"/>
  <text x="12" y="14" font-family="BlinkMacSystemFont,'-apple-system','Segoe UI','Fira Sans',Roboto,Ubuntu,Oxygen-Sans,Cantarell,'Helvetica Neue',Arial,sans-serif" font-size="75" font-weight="700"><tspan x="340" y="150">is</tspan><tspan x="341" y="213" font-weight="900">NOT</tspan><tspan x="341" y="280">hard</tspan></text>
</svg>
