<svg xmlns="http://www.w3.org/2000/svg" xmlns:xlink="http://www.w3.org/1999/xlink">
<defs><linearGradient id="b" x2="0" y2="100%"><stop offset="0.2" stop-color="#D44638"/><stop offset="1" stop-color="#B23121"/></linearGradient><linearGradient id="a"><stop offset="0" stop-color="#fd5"/><stop offset=".1" stop-color="#fd5"/><stop offset=".5" stop-color="#ff543e"/><stop offset="1" stop-color="#c837ab"/></linearGradient><radialGradient id="c" cx="150" cy="650" r="650" xlink:href="#a" gradientUnits="userSpaceOnUse" fx="150" fy="650"/></defs><symbol id="mail" viewBox="0 0 800 800"><path fill="url(#b)" d="M627 180c29 0 53 24 53 53v334c0 29-24 53-53 53H173c-29 0-53-24-53-53V233c0-29 24-53 53-53h454zm-7 113v-53L400 387 180 240v53l220 147z"/></symbol><symbol id="lin" viewBox="0 0 800 800"><path fill="#4875B4" d="M268 629h-97V319h97zm157 0h-97V319h93v42h1q31-50 93-50 114 0 114 133v185h-96V466q0-70-49-70-59 0-59 69z"/><circle fill="#4875B4" cx="219" cy="220" r="56"/></symbol><symbol id="gh" viewBox="0 0 800 800"><path fill="#333" d="M400 177c-127 0-223 103-223 223 0 104 72 188 160 214v-41c0-33 17-46 17-46-73-8-116-43-116-126 0-45 27-69 27-69s-14-26 2-67c25-6 71 26 71 26s24-9 63-9 63 9 63 9 46-32 71-26c16 41 2 67 2 67s27 24 27 69c0 83-43 118-116 126 0 0 17 13 17 46v41c87-27 158-109 158-214 0-120-96-223-223-223zm0-42c146 0 265 119 265 265S546 665 400 665 135 546 135 400s119-265 265-265z"/></symbol><symbol id="fb" viewBox="0 0 800 800"><path fill="#3B5998" d="M445 643h-90V419h-75v-87h75v-64q0-55 32-86 30-29 80-29 28 0 67 3v78h-47q-42 0-42 38v60h86l-11 87h-75v224z"/></symbol><symbol id="insta" viewBox="0 0 800 800"><defs></defs><path fill="url(#c)" d="M150 400c0-119 0-166 42-208s88-42 208-42 166 0 208 42 42 89 42 208 0 166-42 208-88 42-208 42-166 0-208-42-42-89-42-208zm455 0c0-114 0-148-29-176-29-29-62-29-176-29s-148 0-176 29c-29 29-29 62-29 176s0 148 29 176c29 29 62 29 176 29s148 0 176-29c29-29 29-62 29-176zM400 272a128 128 0 1 1 0 256 128 128 0 0 1 0-256zm0 211c46 0 83-37 83-83s-37-83-83-83-83 37-83 83 37 83 83 83zm163-216c0 16-13 30-30 30-16 0-30-14-30-30 0-17 14-30 30-30 17 0 30 13 30 30z"/></symbol><symbol id="twit" viewBox="0 0 800 800"><path fill="#38A1F3" d="M679 239s-21 34-55 57c7 156-107 329-314 329-103 0-169-50-169-50s81 17 163-45c-83-5-103-77-103-77s23 6 50-2c-93-23-89-110-89-110s23 14 50 14c-84-65-34-148-34-148s76 107 228 116c-22-121 117-177 188-101 37-6 71-27 71-27s-12 41-49 61c30-2 63-17 63-17z"/></symbol></svg>
